<svg xmlns="http://www.w3.org/2000/svg" viewBox="0 0 1120 980" font-family="'Segoe UI', Arial, sans-serif">
  <defs>
    <marker id="arrow" markerWidth="8" markerHeight="8" refX="6" refY="3" orient="auto">
      <path d="M0,0 L0,6 L8,3 z" fill="#94a3b8"/>
    </marker>
    <marker id="arrow-blue" markerWidth="8" markerHeight="8" refX="6" refY="3" orient="auto">
      <path d="M0,0 L0,6 L8,3 z" fill="#60a5fa"/>
    </marker>
    <marker id="arrow-green" markerWidth="8" markerHeight="8" refX="6" refY="3" orient="auto">
      <path d="M0,0 L0,6 L8,3 z" fill="#34d399"/>
    </marker>
    <marker id="arrow-amber" markerWidth="8" markerHeight="8" refX="6" refY="3" orient="auto">
      <path d="M0,0 L0,6 L8,3 z" fill="#fbbf24"/>
    </marker>
    <marker id="arrow-cyan" markerWidth="8" markerHeight="8" refX="6" refY="3" orient="auto">
      <path d="M0,0 L0,6 L8,3 z" fill="#22d3ee"/>
    </marker>
    <filter id="shadow" x="-5%" y="-5%" width="110%" height="110%">
      <feDropShadow dx="2" dy="2" stdDeviation="3" flood-color="#000" flood-opacity="0.4"/>
    </filter>
  </defs>

  <rect width="1120" height="980" fill="#0f172a" rx="12"/>

  <!-- Title -->
  <text x="560" y="38" text-anchor="middle" font-size="18" font-weight="700" fill="#f1f5f9">UPSC-RAG · End-to-End Architecture</text>
  <text x="560" y="58" text-anchor="middle" font-size="11" fill="#64748b">Offline build (top) · Request-time (below)</text>

  <!-- ════════════ OFFLINE ════════════ -->
  <rect x="20" y="74" width="1080" height="150" rx="8" fill="#1e293b" stroke="#334155" stroke-width="1"/>
  <text x="40" y="96" font-size="11" font-weight="600" fill="#64748b" letter-spacing="1">OFFLINE · BUILD TIME  (run once per book)</text>

  <!-- PDF -->
  <rect x="44" y="112" width="78" height="46" rx="6" fill="#1e3a5f" stroke="#3b82f6" stroke-width="1.5" filter="url(#shadow)"/>
  <text x="83" y="132" text-anchor="middle" font-size="12" font-weight="600" fill="#93c5fd">PDF</text>
  <text x="83" y="148" text-anchor="middle" font-size="8" fill="#60a5fa">1531 pages</text>
  <line x1="122" y1="135" x2="148" y2="135" stroke="#60a5fa" stroke-width="1.5" marker-end="url(#arrow-blue)"/>

  <!-- Parsing -->
  <rect x="150" y="112" width="92" height="46" rx="6" fill="#1e293b" stroke="#475569" stroke-width="1.5" filter="url(#shadow)"/>
  <text x="196" y="132" text-anchor="middle" font-size="11" font-weight="600" fill="#cbd5e1">Parsing</text>
  <text x="196" y="148" text-anchor="middle" font-size="8" fill="#94a3b8">TOC + body</text>
  <line x1="242" y1="135" x2="268" y2="135" stroke="#60a5fa" stroke-width="1.5" marker-end="url(#arrow-blue)"/>

  <!-- Chunking -->
  <rect x="270" y="112" width="104" height="46" rx="6" fill="#1e293b" stroke="#475569" stroke-width="1.5" filter="url(#shadow)"/>
  <text x="322" y="132" text-anchor="middle" font-size="11" font-weight="600" fill="#cbd5e1">Chunking</text>
  <text x="322" y="148" text-anchor="middle" font-size="8" fill="#94a3b8">366 parent · 1469 child</text>
  <line x1="374" y1="135" x2="400" y2="135" stroke="#60a5fa" stroke-width="1.5" marker-end="url(#arrow-blue)"/>

  <!-- Enrichment -->
  <rect x="402" y="112" width="112" height="46" rx="6" fill="#1e293b" stroke="#475569" stroke-width="1.5" filter="url(#shadow)"/>
  <text x="458" y="132" text-anchor="middle" font-size="11" font-weight="600" fill="#cbd5e1">Enrichment</text>
  <text x="458" y="148" text-anchor="middle" font-size="8" fill="#94a3b8">entities · catalog</text>
  <line x1="514" y1="135" x2="540" y2="135" stroke="#60a5fa" stroke-width="1.5" marker-end="url(#arrow-blue)"/>

  <!-- Embedding -->
  <rect x="542" y="112" width="96" height="46" rx="6" fill="#1e293b" stroke="#475569" stroke-width="1.5" filter="url(#shadow)"/>
  <text x="590" y="132" text-anchor="middle" font-size="11" font-weight="600" fill="#cbd5e1">Embedding</text>
  <text x="590" y="148" text-anchor="middle" font-size="8" fill="#94a3b8">→ vectors</text>
  <line x1="638" y1="135" x2="664" y2="135" stroke="#60a5fa" stroke-width="1.5" marker-end="url(#arrow-blue)"/>

  <!-- Qdrant (build) -->
  <rect x="666" y="108" width="138" height="54" rx="6" fill="#1a2e1a" stroke="#22c55e" stroke-width="1.5" filter="url(#shadow)"/>
  <text x="735" y="128" text-anchor="middle" font-size="12" font-weight="600" fill="#86efac">Qdrant</text>
  <text x="735" y="143" text-anchor="middle" font-size="8" fill="#4ade80">upsc_polity · 1319 pts</text>
  <text x="735" y="155" text-anchor="middle" font-size="8" fill="#4ade80">3072-d cosine · parent_text</text>

  <!-- graph.pkl shelved -->
  <rect x="828" y="108" width="152" height="54" rx="6" fill="#1e293b" stroke="#334155" stroke-width="1" stroke-dasharray="5,3"/>
  <text x="904" y="128" text-anchor="middle" font-size="11" font-weight="600" fill="#475569">graph.pkl</text>
  <text x="904" y="143" text-anchor="middle" font-size="8" fill="#475569">516 sec · 190 article nodes</text>
  <text x="904" y="155" text-anchor="middle" font-size="8" fill="#ef4444">SHELVED · sparse entities</text>
  <line x1="804" y1="135" x2="828" y2="135" stroke="#334155" stroke-width="1" stroke-dasharray="4,3" marker-end="url(#arrow)"/>

  <!-- chunks.jsonl artifact -->
  <rect x="270" y="178" width="104" height="34" rx="5" fill="#0f172a" stroke="#334155" stroke-width="1"/>
  <text x="322" y="193" text-anchor="middle" font-size="8" fill="#94a3b8">chunks.jsonl</text>
  <text x="322" y="205" text-anchor="middle" font-size="8" fill="#64748b">BM25 corpus</text>
  <line x1="322" y1="158" x2="322" y2="178" stroke="#334155" stroke-width="1" stroke-dasharray="3,2"/>

  <!-- ════════════ REQUEST TIERS ════════════ -->
  <!-- Browser -->
  <rect x="40" y="266" width="150" height="76" rx="8" fill="#1e3a5f" stroke="#3b82f6" stroke-width="1.5" filter="url(#shadow)"/>
  <text x="115" y="290" text-anchor="middle" font-size="12" font-weight="700" fill="#93c5fd">Browser</text>
  <text x="115" y="307" text-anchor="middle" font-size="8" fill="#60a5fa">React UI · port 3000</text>
  <text x="115" y="321" text-anchor="middle" font-size="8" fill="#60a5fa">streams tokens</text>
  <text x="115" y="335" text-anchor="middle" font-size="8" fill="#60a5fa">renders markdown</text>

  <!-- Browser <-> BFF -->
  <line x1="190" y1="298" x2="258" y2="298" stroke="#60a5fa" stroke-width="1.5" marker-end="url(#arrow-blue)"/>
  <text x="224" y="292" text-anchor="middle" font-size="8" fill="#60a5fa">POST /api/ask</text>
  <line x1="258" y1="316" x2="190" y2="316" stroke="#34d399" stroke-width="1.5" marker-end="url(#arrow-green)"/>
  <text x="224" y="329" text-anchor="middle" font-size="8" fill="#34d399">NDJSON stream</text>

  <!-- Next.js BFF -->
  <rect x="260" y="260" width="170" height="88" rx="8" fill="#1e2a1e" stroke="#22c55e" stroke-width="1.5" filter="url(#shadow)"/>
  <text x="345" y="283" text-anchor="middle" font-size="12" font-weight="700" fill="#86efac">Next.js BFF</text>
  <text x="345" y="299" text-anchor="middle" font-size="8" fill="#4ade80">Node.js server · port 3000</text>
  <text x="345" y="313" text-anchor="middle" font-size="8" fill="#4ade80">app/api/ask/route.ts</text>
  <text x="345" y="327" text-anchor="middle" font-size="8" fill="#4ade80">dedupes sources</text>
  <text x="345" y="341" text-anchor="middle" font-size="8" fill="#4ade80">proxies stream → browser</text>

  <!-- BFF <-> FastAPI -->
  <line x1="430" y1="298" x2="498" y2="298" stroke="#60a5fa" stroke-width="1.5" marker-end="url(#arrow-blue)"/>
  <text x="464" y="292" text-anchor="middle" font-size="8" fill="#60a5fa">POST /ask/stream</text>
  <line x1="498" y1="316" x2="430" y2="316" stroke="#34d399" stroke-width="1.5" marker-end="url(#arrow-green)"/>
  <text x="464" y="329" text-anchor="middle" font-size="8" fill="#34d399">NDJSON stream</text>

  <!-- FastAPI -->
  <rect x="500" y="260" width="170" height="88" rx="8" fill="#2a1e2e" stroke="#a855f7" stroke-width="1.5" filter="url(#shadow)"/>
  <text x="585" y="283" text-anchor="middle" font-size="12" font-weight="700" fill="#d8b4fe">FastAPI</text>
  <text x="585" y="299" text-anchor="middle" font-size="8" fill="#c084fc">backend · port 8000</text>
  <text x="585" y="313" text-anchor="middle" font-size="8" fill="#c084fc">POST /ask/stream</text>
  <text x="585" y="327" text-anchor="middle" font-size="8" fill="#c084fc">retriever built at startup</text>
  <text x="585" y="341" text-anchor="middle" font-size="8" fill="#c084fc">reused per request</text>

  <!-- ════════════ QUERY GATE · router.py (NEW) ════════════ -->
  <rect x="686" y="255" width="200" height="82" rx="8" fill="#2a1e0e" stroke="#f59e0b" stroke-width="1.5" filter="url(#shadow)"/>
  <text x="786" y="274" text-anchor="middle" font-size="11" font-weight="700" fill="#fcd34d">Query Gate · router.py</text>
  <text x="786" y="291" text-anchor="middle" font-size="8" fill="#fbbf24">① pre-retrieval · greeting / smalltalk regex</text>
  <text x="786" y="304" text-anchor="middle" font-size="8" fill="#fbbf24">② post-retrieval · top dense cosine &lt; 0.30</text>
  <text x="786" y="318" text-anchor="middle" font-size="8" fill="#d97706">match → short-circuit, skip generation</text>
  <text x="786" y="330" text-anchor="middle" font-size="7.5" fill="#a16207">★ NEW · smalltalk_reply() · is_off_topic()</text>

  <!-- FastAPI → Query Gate -->
  <line x1="670" y1="288" x2="686" y2="288" stroke="#fbbf24" stroke-width="1.5" marker-end="url(#arrow-amber)"/>
  <text x="678" y="282" text-anchor="middle" font-size="7" fill="#fbbf24">query</text>

  <!-- Query Gate → canned reply (short-circuit) -->
  <line x1="786" y1="337" x2="786" y2="345" stroke="#fbbf24" stroke-width="1.5" marker-end="url(#arrow-amber)"/>
  <rect x="686" y="346" width="200" height="44" rx="6" fill="#1e293b" stroke="#475569" stroke-width="1"/>
  <text x="786" y="362" text-anchor="middle" font-size="8" font-weight="600" fill="#cbd5e1">canned / out-of-scope reply</text>
  <text x="786" y="374" text-anchor="middle" font-size="7.5" fill="#94a3b8">NDJSON: sources:[ ] → one token → done</text>
  <text x="786" y="385" text-anchor="middle" font-size="7.5" fill="#94a3b8">no embed · no answer-LLM call</text>

  <!-- FastAPI → Retriever (in-scope path) -->
  <line x1="585" y1="348" x2="585" y2="392" stroke="#94a3b8" stroke-width="1.5" marker-end="url(#arrow)"/>
  <text x="648" y="372" text-anchor="middle" font-size="8" fill="#94a3b8">in-scope → retrieve</text>

  <!-- ════════════ HYBRID RETRIEVER ════════════ -->
  <rect x="60" y="396" width="820" height="372" rx="10" fill="#1a1a2e" stroke="#6366f1" stroke-width="2" filter="url(#shadow)"/>
  <text x="80" y="419" font-size="11" font-weight="700" fill="#818cf8" letter-spacing="1">HYBRID RETRIEVER  ·  retrieve(query)</text>

  <!-- Step 1 -->
  <rect x="80" y="430" width="780" height="54" rx="6" fill="#1e293b" stroke="#334155" stroke-width="1"/>
  <text x="98" y="448" font-size="10" font-weight="700" fill="#94a3b8">1 · FIRST PASS   (always · one embed call)</text>
  <rect x="100" y="456" width="170" height="20" rx="4" fill="#1e3a5f" stroke="#3b82f6" stroke-width="1"/>
  <text x="185" y="470" text-anchor="middle" font-size="8" fill="#93c5fd">embed(query) → Qdrant dense</text>
  <line x1="270" y1="466" x2="296" y2="466" stroke="#94a3b8" stroke-width="1" marker-end="url(#arrow)"/>
  <rect x="298" y="456" width="150" height="20" rx="4" fill="#1e293b" stroke="#475569" stroke-width="1"/>
  <text x="373" y="470" text-anchor="middle" font-size="8" fill="#cbd5e1">BM25Okapi (stemmed)</text>
  <line x1="448" y1="466" x2="474" y2="466" stroke="#94a3b8" stroke-width="1" marker-end="url(#arrow)"/>
  <rect x="476" y="456" width="180" height="20" rx="4" fill="#2a1e1e" stroke="#ef4444" stroke-width="1"/>
  <text x="566" y="470" text-anchor="middle" font-size="8" fill="#fca5a5">read top dense cosine score</text>

  <!-- Step 2 -->
  <rect x="80" y="490" width="780" height="74" rx="6" fill="#1e293b" stroke="#334155" stroke-width="1"/>
  <text x="98" y="508" font-size="10" font-weight="700" fill="#94a3b8">2 · REWRITE GATE</text>
  <!-- diamond -->
  <polygon points="160,532 196,514 232,532 196,550" fill="#292524" stroke="#f59e0b" stroke-width="1.5"/>
  <text x="196" y="529" text-anchor="middle" font-size="8" fill="#fbbf24">score</text>
  <text x="196" y="540" text-anchor="middle" font-size="8" fill="#fbbf24">&lt; 0.55 ?</text>
  <!-- NO -->
  <line x1="232" y1="525" x2="300" y2="525" stroke="#34d399" stroke-width="1.5" marker-end="url(#arrow-green)"/>
  <text x="470" y="522" text-anchor="middle" font-size="9" fill="#34d399">NO  →  skip rewrite · fast path (~0.2–1.1s)</text>
  <!-- YES -->
  <line x1="232" y1="540" x2="300" y2="540" stroke="#f59e0b" stroke-width="1.5" marker-end="url(#arrow-amber)"/>
  <text x="478" y="544" text-anchor="middle" font-size="9" fill="#fbbf24">YES  →  rewrite (LLM) → N variants → ThreadPool</text>
  <text x="476" y="557" text-anchor="middle" font-size="8" fill="#d97706">parallel embed + dense + BM25 per variant</text>

  <!-- Step 3 -->
  <rect x="80" y="570" width="780" height="34" rx="6" fill="#1e293b" stroke="#334155" stroke-width="1"/>
  <text x="98" y="591" font-size="10" font-weight="700" fill="#94a3b8">3 · RRF FUSION</text>
  <text x="300" y="591" font-size="9" fill="#94a3b8">Reciprocal Rank Fusion over all dense + BM25 lists  (k=60)  →  unified scores</text>

  <!-- Step 4 -->
  <rect x="80" y="610" width="780" height="30" rx="6" fill="#141414" stroke="#334155" stroke-width="1" stroke-dasharray="5,3"/>
  <text x="98" y="629" font-size="10" font-weight="700" fill="#374151">4 · GRAPH EXPAND</text>
  <text x="300" y="629" font-size="9" fill="#374151">section → article → section walk (IDF-weighted)</text>
  <text x="770" y="629" text-anchor="middle" font-size="8" fill="#6b7280">DISABLED</text>

  <!-- Step 5 -->
  <rect x="80" y="646" width="780" height="110" rx="6" fill="#1e293b" stroke="#334155" stroke-width="1"/>
  <text x="98" y="664" font-size="10" font-weight="700" fill="#94a3b8">5 · BUILD RESULTS   (top rerank_k sections)</text>
  <!-- A -->
  <rect x="100" y="674" width="222" height="68" rx="4" fill="#1e2a1e" stroke="#22c55e" stroke-width="1"/>
  <text x="211" y="694" text-anchor="middle" font-size="9" font-weight="600" fill="#86efac">parent-text expansion</text>
  <text x="211" y="710" text-anchor="middle" font-size="8" fill="#4ade80">return full section,</text>
  <text x="211" y="722" text-anchor="middle" font-size="8" fill="#4ade80">not the child span</text>
  <text x="211" y="734" text-anchor="middle" font-size="8" fill="#4ade80">+ section_path · pages</text>
  <!-- B (NEW) -->
  <rect x="332" y="674" width="262" height="68" rx="4" fill="#2a1e0e" stroke="#f59e0b" stroke-width="1.5"/>
  <text x="463" y="694" text-anchor="middle" font-size="9" font-weight="600" fill="#fcd34d">entity enrichment  ★ NEW</text>
  <text x="463" y="710" text-anchor="middle" font-size="8" fill="#fbbf24">extract_entities(text)  ∪  chapter</text>
  <text x="463" y="722" text-anchor="middle" font-size="8" fill="#fbbf24">catalog articles</text>
  <text x="463" y="734" text-anchor="middle" font-size="8" fill="#fbbf24">(22 chapters · 351 entries)</text>
  <!-- C -->
  <rect x="604" y="674" width="236" height="68" rx="4" fill="#1e293b" stroke="#475569" stroke-width="1"/>
  <text x="722" y="694" text-anchor="middle" font-size="9" font-weight="600" fill="#cbd5e1">BM25-only fallback</text>
  <text x="722" y="710" text-anchor="middle" font-size="8" fill="#94a3b8">in-memory parent_texts map</text>
  <text x="722" y="722" text-anchor="middle" font-size="8" fill="#94a3b8">no Qdrant round-trip</text>

  <!-- Retriever → Generation -->
  <line x1="585" y1="768" x2="585" y2="800" stroke="#94a3b8" stroke-width="1.5" marker-end="url(#arrow)"/>
  <text x="640" y="788" font-size="8" fill="#94a3b8">results · text · entities</text>

  <!-- ════════════ GENERATION ════════════ -->
  <rect x="200" y="802" width="640" height="98" rx="10" fill="#2a1e2e" stroke="#a855f7" stroke-width="1.5" filter="url(#shadow)"/>
  <text x="520" y="824" text-anchor="middle" font-size="12" font-weight="700" fill="#d8b4fe">Generation  ·  answer.py</text>
  <!-- L -->
  <rect x="220" y="832" width="290" height="56" rx="5" fill="#1e293b" stroke="#475569" stroke-width="1"/>
  <text x="365" y="851" text-anchor="middle" font-size="9" font-weight="600" fill="#cbd5e1">build_answer_prompt()</text>
  <text x="365" y="866" text-anchor="middle" font-size="8" fill="#94a3b8">injects Articles into source header</text>
  <text x="365" y="879" text-anchor="middle" font-size="8" fill="#94a3b8">system prompt: Article-led · ## headings</text>
  <!-- R -->
  <rect x="530" y="832" width="290" height="56" rx="5" fill="#1e293b" stroke="#475569" stroke-width="1"/>
  <text x="675" y="851" text-anchor="middle" font-size="9" font-weight="600" fill="#cbd5e1">generate_answer_stream()</text>
  <text x="675" y="866" text-anchor="middle" font-size="8" fill="#94a3b8">LLM · temp 0.2 · stream = True</text>
  <text x="675" y="879" text-anchor="middle" font-size="8" fill="#94a3b8">NDJSON: sources → tokens → done</text>

  <!-- ════════════ EXTERNAL STORES ════════════ -->
  <rect x="912" y="430" width="170" height="76" rx="8" fill="#1a2e1a" stroke="#22c55e" stroke-width="1.5" filter="url(#shadow)"/>
  <text x="997" y="453" text-anchor="middle" font-size="11" font-weight="700" fill="#86efac">Qdrant</text>
  <text x="997" y="469" text-anchor="middle" font-size="8" fill="#4ade80">Docker · port 6333</text>
  <text x="997" y="483" text-anchor="middle" font-size="8" fill="#4ade80">dense cosine search</text>
  <text x="997" y="497" text-anchor="middle" font-size="8" fill="#4ade80">+ parent_text payload</text>
  <line x1="880" y1="466" x2="912" y2="466" stroke="#22c55e" stroke-width="1" stroke-dasharray="3,2" marker-end="url(#arrow-green)"/>

  <rect x="912" y="524" width="170" height="76" rx="8" fill="#2a1e2e" stroke="#a855f7" stroke-width="1.5" filter="url(#shadow)"/>
  <text x="997" y="547" text-anchor="middle" font-size="11" font-weight="700" fill="#d8b4fe">LLM API</text>
  <text x="997" y="563" text-anchor="middle" font-size="8" fill="#c084fc">embeddings</text>
  <text x="997" y="577" text-anchor="middle" font-size="8" fill="#c084fc">query rewrite</text>
  <text x="997" y="591" text-anchor="middle" font-size="8" fill="#c084fc">answer generation</text>
  <line x1="880" y1="540" x2="912" y2="552" stroke="#a855f7" stroke-width="1" stroke-dasharray="3,2" marker-end="url(#arrow)"/>

  <!-- Langfuse observability sink -->
  <rect x="912" y="618" width="170" height="98" rx="8" fill="#0e2a2e" stroke="#22d3ee" stroke-width="1.5" filter="url(#shadow)"/>
  <text x="997" y="641" text-anchor="middle" font-size="11" font-weight="700" fill="#67e8f9">Langfuse</text>
  <text x="997" y="657" text-anchor="middle" font-size="8" fill="#22d3ee">self-hosted · port 3001</text>
  <text x="997" y="671" text-anchor="middle" font-size="8" fill="#22d3ee">spans + generations / stage</text>
  <text x="997" y="684" text-anchor="middle" font-size="8" fill="#22d3ee">tokens · cost · latency</text>
  <text x="997" y="697" text-anchor="middle" font-size="8" fill="#22d3ee">sessions group a chat</text>
  <text x="997" y="710" text-anchor="middle" font-size="7" fill="#155e63">no-op when keys unset</text>

  <!-- telemetry: retriever + generation emit traces -->
  <line x1="880" y1="660" x2="912" y2="660" stroke="#22d3ee" stroke-width="1" stroke-dasharray="3,2" marker-end="url(#arrow-cyan)"/>
  <text x="896" y="653" text-anchor="middle" font-size="7" fill="#22d3ee">traces</text>
  <line x1="842" y1="812" x2="958" y2="716" stroke="#22d3ee" stroke-width="1" stroke-dasharray="3,2" marker-end="url(#arrow-cyan)"/>
  <text x="916" y="775" text-anchor="middle" font-size="7" fill="#22d3ee">answer gen</text>

  <!-- ════════════ LEGEND ════════════ -->
  <rect x="20" y="920" width="1080" height="40" rx="6" fill="#1e293b" stroke="#334155" stroke-width="1"/>
  <circle cx="52" cy="940" r="5" fill="#3b82f6"/>
  <text x="64" y="944" font-size="9" fill="#94a3b8">Request path</text>
  <rect x="150" y="935" width="14" height="9" rx="2" fill="#22c55e" opacity="0.55"/>
  <text x="172" y="944" font-size="9" fill="#94a3b8">Data stores</text>
  <rect x="250" y="935" width="14" height="9" rx="2" fill="#a855f7" opacity="0.55"/>
  <text x="272" y="944" font-size="9" fill="#94a3b8">LLM-touch points</text>
  <rect x="382" y="935" width="14" height="9" rx="2" fill="#f59e0b" opacity="0.7"/>
  <text x="404" y="944" font-size="9" fill="#fcd34d">★ Catalog enrichment (new) · article_recall 50% → 75%</text>
  <rect x="640" y="935" width="14" height="9" rx="2" fill="#374151" stroke="#334155" stroke-width="1" stroke-dasharray="3,2"/>
  <text x="662" y="944" font-size="9" fill="#6b7280">Shelved (graph expansion)</text>
  <rect x="838" y="935" width="14" height="9" rx="2" fill="#22d3ee" opacity="0.7"/>
  <text x="860" y="944" font-size="9" fill="#67e8f9">Telemetry → Langfuse</text>
  <text x="1075" y="944" text-anchor="end" font-size="9" fill="#475569">UPSC-RAG</text>
</svg>
